<?xml version="1.0" encoding="UTF-8" standalone="no"?>
<!DOCTYPE svg PUBLIC "-//W3C//DTD SVG 1.1//EN" "http://www.w3.org/Graphics/SVG/1.1/DTD/svg11.dtd">
<svg width="100%" height="100%" viewBox="0 0 800 800" version="1.1" xmlns="http://www.w3.org/2000/svg" xmlns:xlink="http://www.w3.org/1999/xlink" xml:space="preserve" xmlns:serif="http://www.serif.com/" style="fill-rule:evenodd;clip-rule:evenodd;stroke-linecap:round;stroke-linejoin:round;stroke-miterlimit:10;">
    <g transform="matrix(0.5,0,0,0.5,0,0)">
        <g transform="matrix(1.14462,0,0,1.14462,779.196,1088.16)">
            <g id="レイヤー-1" serif:id="レイヤー 1">
                <path d="M0,-493L-132.549,-413.686L-132.549,353.186L23,431L22,-337L-133,-414M-132.549,-860.292L-132.549,-566.472M622,-625L-21,-924L-132.549,-860.292L499.03,-555.034L622,-625ZM499.03,197.516L206,84L499,-64L499.03,197.516ZM150,-334L499.164,-181.567M23,431L150,357L150,112L499.164,-64.039L499.164,197.461L624,141L622,-625L499.164,-554.719L499.164,-181.567L150,-9L150,-419M-420.493,-404.871L-420.493,-222.702L-250.077,-149.247L-250.077,-325.54L-420.493,-404.871ZM-420.493,197.461L-420.752,-84.019M-555,-625L-553,141L-420.493,197.461L-132.549,53.488L-420.493,-84.117M-420,-700L15.835,-485.244L150,-419L22,-337L-105.844,-400.333L-555,-625L-420,-700Z" style="fill:rgb(255,48,86);fill-opacity:0;fill-rule:nonzero;stroke:black;stroke-width:41.94px;"/>
            </g>
        </g>
    </g>
</svg>
